<?xml version="1.0" encoding="UTF-8" standalone="no"?>
<!DOCTYPE svg PUBLIC "-//W3C//DTD SVG 1.1//EN" "http://www.w3.org/Graphics/SVG/1.1/DTD/svg11.dtd">
<svg width="100%" height="100%" viewBox="0 0 2000 2000" version="1.1" xmlns="http://www.w3.org/2000/svg" xmlns:xlink="http://www.w3.org/1999/xlink" xml:space="preserve" xmlns:serif="http://www.serif.com/" style="fill-rule:evenodd;clip-rule:evenodd;stroke-linecap:round;stroke-linejoin:round;stroke-miterlimit:1.5;">
    <g transform="matrix(3.40202,0,0,2.46554,-258.98,120.771)">
        <path d="M156.23,98.958L199.326,189.875" style="fill:none;stroke:rgb(187,56,84);stroke-width:2.36px;"/>
    </g>
    <g transform="matrix(1.36919,3.86122,-2.61461,0.927145,742.324,-350.355)">
        <path d="M156.23,98.958L199.326,189.875" style="fill:none;stroke:rgb(187,56,84);stroke-width:2px;"/>
    </g>
    <g transform="matrix(-4.01033,2.91074,-1.8955,-2.61156,1648.95,551.45)">
        <path d="M156.23,98.958L199.326,189.875" style="fill:none;stroke:rgb(187,56,84);stroke-width:1.67px;"/>
    </g>
    <g transform="matrix(-4.04049,-2.86872,1.86813,-2.6312,901.295,1709.66)">
        <path d="M156.23,98.958L199.326,189.875" style="fill:none;stroke:rgb(187,56,84);stroke-width:1.67px;"/>
    </g>
    <g transform="matrix(1.05978,-4.84066,3.15228,0.690137,-404.832,1468.07)">
        <path d="M156.23,98.958L199.326,189.875" style="fill:none;stroke:rgb(187,56,84);stroke-width:1.67px;"/>
    </g>
    <g transform="matrix(2.58226,0,0,2.58226,-130.909,109.22)">
        <ellipse cx="614.913" cy="645.163" rx="191" ry="16" style="fill:rgb(63,61,86);"/>
    </g>
    <g transform="matrix(2.58226,0,0,2.58226,-614.81,-199.149)">
        <path d="M992.308,585.6C992.308,664.005 945.697,691.382 888.2,691.382C830.702,691.382 784.091,664.005 784.091,585.6C784.091,507.194 888.2,407.45 888.2,407.45C888.2,407.45 992.308,507.194 992.308,585.6Z" style="fill:rgb(242,242,242);fill-rule:nonzero;"/>
    </g>
    <g transform="matrix(2.58226,0,0,2.58226,-130.909,109.22)">
        <path d="M697.013,559.97L698.079,494.351L742.452,413.172L698.246,484.058L698.725,454.553L729.307,395.82L698.852,446.745L699.714,393.679L732.462,346.921L699.85,385.335L700.388,288.032L697.003,416.844L697.281,411.53L663.986,360.566L696.747,421.731L693.645,480.996L693.553,479.423L655.169,425.791L693.437,484.98L693.049,492.391L692.979,492.503L693.011,493.111L685.14,643.472L695.656,643.472L696.918,565.808L735.091,506.764L697.013,559.97Z" style="fill:rgb(63,61,86);fill-rule:nonzero;"/>
    </g>
    <g transform="matrix(2.58226,0,0,2.58226,-614.81,-199.149)">
        <path d="M959.781,726.693C959.781,749.161 946.425,757.006 929.947,757.006C929.566,757.006 929.185,757.002 928.804,756.994C928.041,756.977 927.284,756.941 926.537,756.89C911.667,755.838 900.113,747.589 900.113,726.693C900.113,705.068 927.748,677.78 929.824,675.761L929.827,675.757C929.907,675.679 929.947,675.641 929.947,675.641C929.947,675.641 959.781,704.224 959.781,726.693Z" style="fill:rgb(187,56,84);fill-rule:nonzero;"/>
    </g>
    <g transform="matrix(2.58226,0,0,2.58226,-614.81,-199.149)">
        <path d="M928.86,753.569L939.772,738.322L928.833,755.243L928.804,756.994C928.041,756.977 927.284,756.941 926.537,756.89L927.713,734.411L927.704,734.236L927.724,734.203L927.835,732.08L916.869,715.118L927.87,730.488L927.895,730.939L928.784,713.954L919.396,696.426L928.899,710.973L929.824,675.761L929.827,675.641L929.827,675.757L929.673,703.524L939.019,692.516L929.635,705.916L929.388,721.123L938.114,706.529L929.351,723.361L929.213,731.815L941.882,711.502L929.166,734.765L928.86,753.569Z" style="fill:rgb(63,61,86);fill-rule:nonzero;"/>
    </g>
    <g transform="matrix(2.58226,0,0,2.58226,-130.909,109.22)">
        <circle cx="225.207" cy="209.206" r="47.904" style="fill:rgb(239,238,238);"/>
    </g>
    <g transform="matrix(2.58226,0,0,2.58226,-130.909,109.22)">
        <circle cx="235.118" cy="194.89" r="47.904" style="fill:none;stroke:rgb(187,56,84);stroke-width:2px;stroke-linecap:butt;stroke-linejoin:miter;stroke-miterlimit:10;"/>
    </g>
    <g transform="matrix(2.58226,0,0,2.58226,-100.625,79.8411)">
        <circle cx="140.347" cy="102.541" r="28.146" style="fill:rgb(187,56,84);"/>
    </g>
    <g transform="matrix(2.58226,0,0,2.58226,374.853,31.5724)">
        <circle cx="140.347" cy="102.541" r="28.146" style="fill:rgb(187,56,84);"/>
    </g>
    <g transform="matrix(2.58226,0,0,2.58226,499.453,482.21)">
        <circle cx="140.347" cy="102.541" r="28.146" style="fill:rgb(187,56,84);"/>
    </g>
    <g transform="matrix(2.58226,0,0,2.58226,94.0693,722.06)">
        <circle cx="140.347" cy="102.541" r="28.146" style="fill:rgb(187,56,84);"/>
    </g>
    <g transform="matrix(2.58226,0,0,2.58226,-289.733,515.062)">
        <circle cx="140.347" cy="102.541" r="28.146" style="fill:rgb(187,56,84);"/>
    </g>
    <g transform="matrix(2.58226,0,0,2.58226,-130.909,109.22)">
        <circle cx="810.455" cy="48.515" r="14.756" style="fill:rgb(242,242,242);"/>
    </g>
    <g transform="matrix(2.58226,0,0,2.58226,-130.909,109.22)">
        <circle cx="804.455" cy="43.515" r="14.756" style="fill:none;stroke:rgb(63,61,86);stroke-width:2px;stroke-linecap:butt;stroke-linejoin:miter;stroke-miterlimit:10;"/>
    </g>
    <g transform="matrix(2.58226,0,0,2.58226,-130.909,109.22)">
        <rect x="683.913" y="51.83" width="33.333" height="33.333" style="fill:rgb(187,56,84);"/>
    </g>
    <g transform="matrix(2.58226,0,0,2.58226,-130.909,109.22)">
        <rect x="690.58" y="45.163" width="33.333" height="33.333" style="fill:none;stroke:rgb(63,61,86);stroke-width:2px;stroke-linecap:butt;stroke-linejoin:miter;stroke-miterlimit:10;"/>
    </g>
    <g transform="matrix(2.58226,0,0,2.58226,-614.81,-199.149)">
        <path d="M794.808,706.082C794.808,706.082 791.808,725.082 786.808,728.082C781.808,731.082 812.808,738.082 812.808,738.082L817.808,708.082L794.808,706.082Z" style="fill:rgb(251,190,190);fill-rule:nonzero;"/>
    </g>
    <g transform="matrix(2.58226,0,0,2.58226,-614.81,-199.149)">
        <path d="M831.808,489.082L842.808,502.082L837.808,547.082L833.808,636.082C833.808,636.082 841.808,713.082 833.808,715.082C825.808,717.082 789.808,716.082 790.808,711.082C791.808,706.082 792.808,702.082 794.808,695.082C796.808,688.082 792.808,663.082 792.808,663.082L797.808,635.082L779.808,514.082L831.808,489.082Z" style="fill:rgb(47,46,65);fill-rule:nonzero;"/>
    </g>
    <g transform="matrix(2.58226,0,0,2.58226,-614.81,-199.149)">
        <path d="M795.808,725.082C795.808,725.082 784.808,723.082 783.808,725.082C782.808,727.082 763.808,748.082 760.808,748.082C757.808,748.082 735.808,768.082 758.808,769.082C781.808,770.082 819.808,752.082 819.808,752.082C819.808,752.082 814.216,726.635 814.512,727.858C814.808,729.082 795.808,730.082 795.808,725.082Z" style="fill:rgb(47,46,65);fill-rule:nonzero;"/>
    </g>
    <g transform="matrix(2.58226,0,0,2.58226,-614.81,-199.149)">
        <path d="M783.808,679.082C783.808,679.082 811.808,710.082 812.808,713.082C813.808,716.082 828.808,713.082 828.808,713.082L834.808,693.082L829.808,686.082L801.808,663.082L783.808,679.082Z" style="fill:rgb(251,190,190);fill-rule:nonzero;"/>
    </g>
    <g transform="matrix(2.58226,0,0,2.58226,-614.81,-199.149)">
        <path d="M823.808,702.082L809.308,715.73C809.308,715.73 827.808,744.082 827.808,747.082C827.808,750.082 828.808,775.082 838.808,771.082C848.808,767.082 849.808,727.082 849.808,727.082C849.808,727.082 848.808,686.082 842.808,683.082C836.808,680.082 823.657,681.029 823.657,681.029C823.657,681.029 831.808,701.082 823.808,702.082Z" style="fill:rgb(47,46,65);fill-rule:nonzero;"/>
    </g>
    <g transform="matrix(2.58226,0,0,2.58226,-614.81,-199.149)">
        <path d="M740.808,400.082C740.808,400.082 735.808,416.082 734.808,420.082C733.808,424.082 727.808,435.082 727.808,452.082C727.808,469.082 729.808,489.082 727.808,491.082C725.808,493.082 693.808,605.082 707.808,617.082C721.808,629.082 767.808,669.082 770.808,674.082C773.808,679.082 774.808,691.082 780.808,689.082C786.808,687.082 809.808,667.082 810.808,663.082C811.808,659.082 797.808,652.082 797.808,652.082C797.808,652.082 769.808,611.082 762.808,612.082C755.808,613.082 756.808,607.082 757.808,604.082C758.808,601.082 760.808,599.082 757.808,599.082C754.808,599.082 756.808,591.082 757.808,587.082C758.808,583.082 781.808,529.082 781.808,529.082L842.808,502.082C842.808,502.082 839.808,429.082 817.808,409.082L812.808,397.082C812.808,397.082 756.808,393.082 740.808,400.082Z" style="fill:rgb(47,46,65);fill-rule:nonzero;"/>
    </g>
    <g transform="matrix(2.58226,0,0,2.58226,-614.81,-199.149)">
        <path d="M765.808,242.082C765.808,242.082 770.808,277.082 758.808,279.082C746.808,281.082 736.808,280.082 736.808,281.082C736.808,282.082 766.808,313.082 766.808,313.082L794.808,311.082L819.808,284.082C819.808,284.082 796.808,280.082 796.808,266.082C796.808,252.082 795.808,242.082 795.808,242.082L765.808,242.082Z" style="fill:rgb(251,190,190);fill-rule:nonzero;"/>
    </g>
    <g transform="matrix(2.58226,0,0,2.58226,-614.81,-199.149)">
        <path d="M765.808,242.082C765.808,242.082 770.808,277.082 758.808,279.082C746.808,281.082 736.808,280.082 736.808,281.082C736.808,282.082 766.808,313.082 766.808,313.082L794.808,311.082L819.808,284.082C819.808,284.082 796.808,280.082 796.808,266.082C796.808,252.082 795.808,242.082 795.808,242.082L765.808,242.082Z" style="fill-opacity:0.1;fill-rule:nonzero;"/>
    </g>
    <g transform="matrix(2.58226,0,0,2.58226,-130.909,109.22)">
        <circle cx="593.913" cy="106.163" r="31" style="fill:rgb(251,190,190);"/>
    </g>
    <g transform="matrix(2.58226,0,0,2.58226,-614.81,-199.149)">
        <path d="M753.808,276.082C753.808,276.082 714.808,281.082 711.808,294.082C708.808,307.082 731.808,388.082 734.808,395.082C737.808,402.082 736.808,407.082 736.808,407.082C745.958,400.239 757.637,397.684 768.808,400.082C787.808,404.082 814.808,402.082 814.808,402.082C814.808,402.082 823.808,365.082 825.808,361.082C827.808,357.082 835.808,335.082 835.808,329.082C835.808,323.082 847.808,298.082 847.808,298.082C847.808,298.082 841.808,280.082 819.808,281.082C819.808,281.082 810.212,276.786 807.51,279.934C804.808,283.082 789.808,297.082 770.808,291.082C751.808,285.082 753.808,276.082 753.808,276.082Z" style="fill:rgb(63,61,86);fill-rule:nonzero;"/>
    </g>
    <g transform="matrix(2.58226,0,0,2.58226,-614.81,-199.149)">
        <path d="M722.808,293.082L711.808,293.082L705.808,372.082C705.808,372.082 727.808,378.082 730.808,374.082C733.808,370.082 722.808,293.082 722.808,293.082Z" style="fill:rgb(63,61,86);fill-rule:nonzero;"/>
    </g>
    <g transform="matrix(2.58226,0,0,2.58226,-614.81,-199.149)">
        <path d="M708.808,364.082L705.808,372.082C705.808,372.082 703.808,398.082 715.808,397.082C727.808,396.082 734.808,381.082 734.808,381.082C734.808,381.082 727.808,362.082 719.808,364.082C711.808,366.082 708.808,364.082 708.808,364.082Z" style="fill:rgb(63,61,86);fill-rule:nonzero;"/>
    </g>
    <g transform="matrix(2.58226,0,0,2.58226,-614.81,-199.149)">
        <path d="M828.808,293.082L847.808,298.082C847.808,298.082 861.808,349.082 862.808,350.082C863.808,351.082 864.808,357.082 864.808,357.082C864.808,357.082 864.808,358.082 866.808,361.082C868.808,364.082 871.808,362.082 869.808,366.082C867.808,370.082 864.808,368.082 866.808,372.082C868.808,376.082 867.808,387.082 867.808,387.082C867.808,387.082 862.808,368.082 844.808,373.082L832.808,319.082L828.808,293.082Z" style="fill:rgb(63,61,86);fill-rule:nonzero;"/>
    </g>
    <g transform="matrix(2.58226,0,0,2.58226,-614.81,-199.149)">
        <path d="M745.998,200.039C739.694,211.115 738.274,224.234 737.404,236.948C737.031,242.401 736.751,247.998 738.368,253.219C740.073,258.724 743.868,264.317 741.922,269.742C740.04,274.989 733.746,277.089 730.232,281.415C727.253,285.081 726.505,290.105 726.763,294.821C727.022,299.538 728.165,304.169 728.501,308.88C729.193,319.227 725.997,329.469 719.542,337.585C734.604,337.004 750.708,330.325 757.06,316.656C758.959,312.569 759.882,308.097 761.596,303.929C763.534,299.215 766.46,294.947 768.295,290.192C771.065,283.017 771.215,275.138 771.33,267.448C771.399,262.844 771.448,258.118 769.855,253.798C766.348,244.29 755.442,238.146 754.359,228.069C754.173,227.004 754.33,225.906 754.81,224.936C755.318,224.228 755.935,223.604 756.638,223.087C763.448,217.076 762.325,204.351 770.432,200.254C774.069,198.415 778.454,199.062 782.361,200.226C786.698,201.518 791.026,203.52 793.848,207.059C799.531,214.185 797.288,224.478 795.53,233.421C792.981,246.393 792.078,259.635 792.84,272.833C792.89,274.944 793.201,277.041 793.767,279.075C794.811,282.376 797.037,285.149 798.717,288.176C802.141,294.396 803.253,301.633 801.854,308.594C800.614,314.653 797.532,321.106 800.245,326.665C801.439,328.812 803.102,330.661 805.111,332.075C813.973,339.021 825.223,343.325 831.812,352.456C832.947,344.998 830.782,337.493 829.184,330.12C827.586,322.747 826.613,314.721 829.897,307.929C831.338,304.95 833.54,302.358 834.718,299.265C837.439,292.122 834.196,284.288 832.227,276.903C830.82,271.103 829.804,265.216 829.186,259.28L827.155,243.258C825.477,230.013 823.72,216.498 817.904,204.48C806.944,181.833 782.14,173.422 759.931,185.971C754.112,189.329 749.3,194.188 745.998,200.039Z" style="fill:rgb(255,101,132);fill-rule:nonzero;"/>
    </g>
    <g transform="matrix(2.58226,0,0,2.58226,-614.81,-199.149)">
        <path d="M718.808,369.082C718.808,369.082 712.808,387.082 719.808,387.082C726.808,387.082 739.808,376.082 740.808,367.082C741.808,358.082 759.808,324.082 746.808,327.082C733.808,330.082 727.808,355.082 727.808,355.082L718.808,369.082Z" style="fill:rgb(251,190,190);fill-rule:nonzero;"/>
    </g>
    <g transform="matrix(2.58226,0,0,2.58226,-130.909,109.22)">
        <path d="M632.413,173.663L599.413,280.663L644.413,290.663L677.413,186.663L632.413,173.663Z" style="fill:rgb(187,56,84);fill-rule:nonzero;"/>
    </g>
    <g transform="matrix(2.58226,0,0,2.58226,-614.81,-199.149)">
        <path d="M861.808,370.082L868.055,380.522C868.055,380.522 870.808,400.082 856.808,400.082C842.808,400.082 822.808,381.082 822.808,381.082C822.808,381.082 812.808,377.082 806.808,378.082C800.808,379.082 767.808,378.082 781.808,361.082C795.808,344.082 819.808,361.082 819.808,361.082L844.808,373.082L857.808,366.082L861.808,370.082Z" style="fill:rgb(251,190,190);fill-rule:nonzero;"/>
    </g>
    <g transform="matrix(2.58226,0,0,2.58226,-614.81,-199.149)">
        <path d="M853.308,356.582L843.308,372.582C843.308,372.582 866.308,375.582 868.308,380.582C870.308,385.582 859.308,354.582 859.308,354.582L853.308,356.582Z" style="fill:rgb(63,61,86);fill-rule:nonzero;"/>
    </g>
</svg>
